# AST/ASF file generated using VICON BodyLanguage
# -----------------------------------------------
:version 1.10
:name VICON
:units
  mass 1.0
  length 0.45
  angle deg
:documentation
   .ast/.asf automatically generated from VICON data using
   VICON BodyBuilder and BodyLanguage model FoxedUp or BRILLIANT.MOD
:root
   order TX TY TZ RX RY RZ
   axis XYZ
   position 0 0 0  
   orientation 0 0 0 
:bonedata
  begin
     id 1 
     name lhipjoint
     direction 0.584852 -0.759097 0.285867 
     length 2.43633 
     axis 0 0 0  XYZ
  end
  begin
     id 2 
     name lfemur
     direction 0.34202 -0.939693 0  
     length 7.14704  
     axis 0 0 20  XYZ
    dof rx ry rz
    limits (-160.0 20.0)
           (-70.0 70.0)
           (-60.0 70.0)
  end
  begin
     id 3 
     name ltibia
     direction 0.342022 -0.939692 0   
     length 7.68483   
     axis 0 0 20   XYZ
    dof rx
    limits (-10.0 170.0)
  end
  begin
     id 4 
     name lfoot
     direction 0.0999605 -0.274639 0.956337   
     length 2.40452   
     axis -90 7.62852e-016 20   XYZ
    dof rx rz
    limits (-45.0 90.0)
           (-70.0 20.0)
  end
  begin
     id 5 
     name ltoes
     direction 1.53468e-011 -4.21881e-011 1   
     length 1.19837   
     axis -90 7.62852e-016 20   XYZ
    dof rx
    limits (-90.0 20.0)
  end
  begin
     id 6 
     name rhipjoint
     direction -0.569886 -0.769002 0.289597   
     length 2.40495  
     axis 0 0 0  XYZ 
  end
  begin
     id 7 
     name rfemur
     direction -0.34202 -0.939693 0   
     length 7.45086   
     axis 0 0 -20   XYZ
    dof rx ry rz
    limits (-160.0 20.0)
           (-70.0 70.0)
           (-70.0 60.0)
  end
  begin
     id 8 
     name rtibia
     direction -0.34202 -0.939693 0   
     length 7.76831   
     axis 0 0 -20   XYZ
    dof rx
    limits (-10.0 170.0)
 end
 begin
     id 9 
     name rfoot
     direction -0.0798572 -0.219406 0.97236   
     length 2.35911  
     axis -90 -7.62852e-016 -20   XYZ
    dof rx rz
    limits (-45.0 90.0)
           (-20.0 70.0)
  end
  begin
     id 10 
     name rtoes
     direction -1.53469e-011 -4.21728e-011 1   
     length 1.18261   
     axis -90 -7.62852e-016 -20   XYZ
    dof rx
    limits (-90.0 20.0)
  end
  begin
     id 11 
     name lowerback
     direction 0.0242088 0.999437 0.0232389   
     length 2.1561   
     axis 0 0 0   XYZ
    dof rx ry rz
    limits (-20.0 45.0)
           (-30.0 30.0)
           (-30.0 30.0)
  end
  begin
     id 12 
     name upperback
     direction -0.0356893 0.999013 -0.0264323   
     length 2.14431   
     axis 0 0 0   XYZ
    dof rx ry rz
    limits (-20.0 45.0)
           (-30.0 30.0)
           (-30.0 30.0)
  end
  begin
     id 13 
     name thorax
     direction -0.0472163 0.998194 -0.0371284   
     length 2.16169   
     axis 0 0 0   XYZ
    dof rx ry rz
    limits (-20.0 45.0)
           (-30.0 30.0)
           (-30.0 30.0)
  end
  begin
     id 14 
     name lowerneck
     direction 0.00863244 0.999921 0.00911972   
     length 1.58651   
     axis 0 0 0   XYZ
    dof rx ry rz
    limits (-20.0 45.0)
           (-30.0 30.0)
           (-30.0 30.0)
  end
  begin
     id 15 
     name upperneck
     direction 0.149523 0.979068 -0.138086   
     length 1.57486   
     axis 0 0 0   XYZ
    dof rx ry rz
    limits (-20.0 45.0)
           (-30.0 30.0)
           (-30.0 30.0)
  end
  begin
     id 16
     name head
     direction 0.0445219 0.997708 -0.0509576  
     length 1.6019  
     axis 0 0 0   XYZ
    dof rx ry rz
    limits (-20.0 45.0)
           (-30.0 30.0)
           (-30.0 30.0)
  end
  begin
     id 17 
     name lclavicle
     direction 0.911271 0.381667 -0.154644  
     length 3.80848  
     axis 0 0 0   XYZ
    dof ry rz
    limits (-20.0 10.0)
           (0.0 20.0)
  end
  begin
     id 18 
     name lhumerus
     direction 1 -4.49003e-011 2.1308e-027   
     length 5.19069   
     axis 180 -30 -90   XYZ
    dof rx ry rz
    limits (-60.0 90.0)
           (-90.0 90.0)
           (-90.0 90.0)
  end
  begin
     id 19
     name lradius
     direction 1 -4.48914e-011 4.01554e-027   
     length 3.30016   
     axis 180 -30 -90   XYZ
    dof rx
    limits (-10.0 170.0)
  end
  begin
     id 20
     name lwrist
     direction 1 -4.49003e-011 1.1934e-026   
     length 1.65008   
     axis -8.46377e-015 90 90   XYZ
    dof ry
    limits (-180.0 0.0)
 end
  begin
     id 21 
     name lhand
     direction 1 -4.49034e-011 2.38659e-026   
     length 0.707698   
     axis -1.52313e-014 90 90   XYZ
    dof rx rz
    limits (-90.0 90.0)
           (-45.0 45.0)
  end
  begin
     id 22 
     name lfingers
     direction 1 -4.48691e-011 4.77775e-026   
     length 0.570564   
     axis -3.04623e-014 90 90   XYZ
    dof rx
    limits (0.0 90.0)
  end
  begin
     id 23
     name lthumb
     direction 0.707107 -6.34832e-011 0.707107   
     length 0.819219   
     axis -90 45 -1.62303e-014   XYZ
    dof rx rz
    limits (-45.0 45.0)
           (-45.0 45.0)
  end
  begin
     id 24 
     name rclavicle
     direction -0.815579 0.573708 -0.0754329   
     length 3.54371  
     axis 0 0 0   XYZ 
    dof ry rz
    limits (-10.0 20.0)
           (-20.0 0.0)
  end
  begin
     id 25 
     name rhumerus
     direction -1 -4.48956e-011 3.05351e-028  
     length 5.23924   
     axis 180 30 90   XYZ
    dof rx ry rz
    limits (-90.0 60.0)
           (-90.0 90.0)
           (-90.0 90.0)
  end
  begin
     id 26 
     name rradius
     direction -1 -4.49013e-011 3.53849e-027   
     length 3.32953   
     axis 180 30 90   XYZ
    dof rx
    limits (-10.0 170.0)
  end
  begin
     id 27 
     name rwrist
     direction -1 -4.48901e-011 1.19374e-026   
     length 1.66477   
     axis -8.46377e-015 -90 -90   XYZ
    dof ry
    limits (-180.0 0.0)
  end
  begin
     id 28
     name rhand
     direction -1 -4.48877e-011 2.38764e-026   
     length 0.607414   
     axis -1.52313e-014 -90 -90   XYZ
    dof rx rz
    limits (-90.0 90.0)
           (-45.0 45.0)
  end
  begin
     id 29
     name rfingers
     direction -1 -4.48882e-011 4.77521e-026   
     length 0.489712   
     axis -3.04623e-014 -90 -90   XYZ
    dof rx
    limits (0.0 90.0)
  end
  begin
     id 30
     name rthumb
     direction -0.707107 -6.34974e-011 0.707107   
     length 0.703132   
     axis -90 -45 1.62303e-014   XYZ
    dof rx rz
    limits (-45.0 45.0)
           (-45.0 45.0)
  end
:hierarchy
  begin
    root lhipjoint rhipjoint lowerback
    lhipjoint lfemur
    lfemur ltibia
    ltibia lfoot
    lfoot ltoes
    rhipjoint rfemur
    rfemur rtibia
    rtibia rfoot
    rfoot rtoes
    lowerback upperback
    upperback thorax
    thorax lowerneck lclavicle rclavicle
    lowerneck upperneck
    upperneck head
    lclavicle lhumerus
    lhumerus lradius
    lradius lwrist
    lwrist lhand lthumb
    lhand lfingers
    rclavicle rhumerus
    rhumerus rradius
    rradius rwrist
    rwrist rhand rthumb
    rhand rfingers
  end

#!OML:ASF E:\VariousWalksJay\Project 1\Capture day 1\Session 1\Actor2.ASF
:FULLY-SPECIFIED
:DEGREES
664
root 7.99912 16.6313 15.8004 10.4705 -18.3761 -8.68438
lowerback 7.35227 -9.50133 -5.20288
upperback 0.519187 -13.0408 0.717589
thorax -2.19411 -6.4519 4.60527
lowerneck 9.39208 -19.1122 -15.6412
upperneck -4.05097 -27.7728 27.2686
head 3.50665 -14.6653 9.32793
rclavicle -3.06128e-014 9.54166e-015
rhumerus -13.0934 62.5789 -98.7469
rradius 79.5118
rwrist 10.8904
rhand -48.1404 3.73972
rfingers 7.12502
rthumb -20.8033 -25.165
lclavicle -3.06128e-014 9.54166e-015
lhumerus -50.8701 -10.5797 85.465
lradius 71.0607
lwrist 5.42898
lhand -42.7025 -41.1548
lfingers 7.12502
lthumb -15.5718 -11.7616
rfemur -27.4108 6.64366 28.4549
rtibia 47.9915
rfoot -22.8947 -0.482814
rtoes 2.48682
lfemur -20.4009 17.3189 -11.456
ltibia 47.619
lfoot -28.6357 18.5825
ltoes -9.27103
665
root 8.02265 16.6291 15.8024 10.4349 -18.8307 -8.45376
lowerback 7.34298 -9.42781 -5.26903
upperback 0.55758 -12.9478 0.65732
thorax -2.15884 -6.40676 4.56848
lowerneck 9.2988 -19.1088 -15.712
upperneck -4.11448 -27.7477 27.2549
head 3.50595 -14.6468 9.32587
rclavicle -3.95581e-014 1.90833e-014
rhumerus -14.1278 61.5778 -99.3525
rradius 79.5777
rwrist 11.0029
rhand -48.1487 3.69996
rfingers 7.12502
rthumb -20.8113 -25.2039
lclavicle -3.95581e-014 1.90833e-014
lhumerus -50.4957 -11.1555 85.9928
lradius 71.087
lwrist 6.58109
lhand -42.247 -39.228
lfingers 7.12502
lthumb -15.1331 -9.80125
rfemur -27.5047 6.89008 28.0264
rtibia 48.0471
rfoot -22.9211 -0.154895
rtoes 2.59578
lfemur -20.278 17.5595 -11.8235
ltibia 47.648
lfoot -28.7322 18.5398
ltoes -9.71744
666
root 8.04874 16.6262 15.8038 10.3668 -19.1878 -8.2021
lowerback 7.36228 -9.35166 -5.32125
upperback 0.622384 -12.8504 0.614109
thorax -2.1112 -6.36066 4.54386
lowerneck 9.20423 -19.1141 -15.7881
upperneck -4.25225 -27.721 27.2726
head 3.48974 -14.6309 9.33608
rclavicle -1.15096e-013 1.43125e-014
rhumerus -15.2758 60.3869 -99.9879
rradius 79.7692
rwrist 11.0441
rhand -48.2062 3.62833
rfingers 7.12502
rthumb -20.8665 -25.2695
lclavicle -1.15096e-013 1.43125e-014
lhumerus -49.9171 -11.7252 86.6184
lradius 71.1212
lwrist 7.90734
lhand -41.6258 -36.9796
lfingers 7.12502
lthumb -14.5346 -7.50874
rfemur -27.5763 7.08378 27.5508
rtibia 48.0948
rfoot -22.9642 0.245923
rtoes 2.56431
lfemur -20.2652 17.7437 -12.2043
ltibia 47.855
lfoot -28.7444 18.4855
ltoes -10.2371
667
root 8.07793 16.6224 15.803 10.287 -19.4377 -7.95873
lowerback 7.42172 -9.27615 -5.34941
upperback 0.716967 -12.7522 0.607025
thorax -2.05144 -6.31572 4.54711
lowerneck 9.10686 -19.1267 -15.8719
upperneck -4.48006 -27.689 27.3393
head 3.45629 -14.617 9.36495
rclavicle -1.0635e-013 -2.8625e-014
rhumerus -16.4926 59.0222 -100.597
rradius 80.1123
rwrist 10.9765
rhand -48.3168 3.53082
rfingers 7.12502
rthumb -20.9728 -25.3553
lclavicle -1.0635e-013 -2.8625e-014
lhumerus -49.0886 -12.2167 87.3191
lradius 71.18
lwrist 9.3528
lhand -40.8381 -34.5698
lfingers 7.12502
lthumb -13.7756 -5.04585
rfemur -27.6479 7.22329 27.0589
rtibia 48.1424
rfoot -23.0018 0.719889
rtoes 2.39033
lfemur -20.4246 17.8286 -12.5673
ltibia 48.3082
lfoot -28.6371 18.4324
ltoes -10.7628
668
root 8.11083 16.6177 15.799 10.2065 -19.5678 -7.75587
lowerback 7.53003 -9.19667 -5.32321
upperback 0.85532 -12.6447 0.639732
thorax -1.97639 -6.26828 4.56626
lowerneck 9.0078 -19.1506 -15.945
upperneck -4.81583 -27.6541 27.4757
head 3.40183 -14.6084 9.41694
rclavicle -1.308e-013 3.49861e-014
rhumerus -17.7216 57.4681 -101.129
rradius 80.6045
rwrist 10.8141
rhand -48.4526 3.42865
rfingers 7.12502
rthumb -21.1032 -25.4429
lclavicle -1.308e-013 3.49861e-014
lhumerus -47.963 -12.5986 88.0701
lradius 71.2792
lwrist 10.8265
lhand -39.959 -32.2203
lfingers 7.12502
lthumb -12.9283 -2.64084
rfemur -27.7301 7.29798 26.5878
rtibia 48.2029
rfoot -23.0166 1.25275
rtoes 2.04456
lfemur -20.7959 17.7575 -12.8745
ltibia 49.0656
lfoot -28.3873 18.3915
ltoes -11.2404
669
root 8.14809 16.6112 15.7902 10.1471 -19.5864 -7.63521
lowerback 7.70287 -9.10772 -5.21667
upperback 1.03998 -12.5187 0.726898
thorax -1.89509 -6.21375 4.60491
lowerneck 8.90686 -19.1842 -16.015
upperneck -5.25961 -27.6159 27.6968
head 3.33014 -14.6058 9.49728
rclavicle -1.70955e-013 4.13472e-014
rhumerus -18.9207 55.7399 -101.545
rradius 81.24
rwrist 10.5857
rhand -48.6257 3.31967
rfingers 7.12502
rthumb -21.2695 -25.5333
lclavicle -1.70955e-013 4.13472e-014
lhumerus -46.5029 -12.8171 88.85
lradius 71.4386
lwrist 12.2507
lhand -39.0576 -30.123
lfingers 7.12502
lthumb -12.0592 -0.490447
rfemur -27.8483 7.31729 26.1828
rtibia 48.2913
rfoot -22.9855 1.82671
rtoes 1.51135
lfemur -21.4245 17.5045 -13.0835
ltibia 50.1745
lfoot -27.9651 18.3754
ltoes -11.5446
670
root 8.19044 16.6025 15.7756 10.1171 -19.504 -7.60863
lowerback 7.93901 -9.00051 -5.00835
upperback 1.27782 -12.3606 0.861578
thorax -1.80714 -6.14525 4.64329
lowerneck 8.80088 -19.2294 -16.0777
upperneck -5.80129 -27.579 28.0112
head 3.24696 -14.6119 9.60655
rclavicle -1.05157e-013 3.81667e-014
rhumerus -20.0363 53.8375 -101.81
rradius 81.9985
rwrist 10.3314
rhand -48.7795 3.20738
rfingers 7.12502
rthumb -21.4173 -25.6288
lclavicle -1.05157e-013 3.81667e-014
lhumerus -44.6864 -12.8589 89.6454
lradius 71.6852
lwrist 13.5651
lhand -38.2241 -28.401
lfingers 7.12502
lthumb -11.2554 1.27699
rfemur -28.0173 7.27893 25.8571
rtibia 48.4191
rfoot -22.9042 2.43631
rtoes 0.817571
lfemur -22.3272 17.0372 -13.1829
ltibia 51.6506
lfoot -27.355 18.3796
ltoes -11.5885
671
root 8.23834 16.5906 15.7543 10.1281 -19.3387 -7.70074
lowerback 8.24004 -8.86984 -4.67026
upperback 1.57338 -12.1605 1.03729
thorax -1.71651 -6.05753 4.65927
lowerneck 8.68903 -19.2811 -16.1272
upperneck -6.42185 -27.5394 28.4224
head 3.15722 -14.6251 9.74533
rclavicle 2.5842e-014 -1.74931e-014
rhumerus -21.0158 51.7791 -101.918
rradius 82.8449
rwrist 10.0766
rhand -48.9469 3.10088
rfingers 7.12502
rthumb -21.578 -25.717
lclavicle 2.5842e-014 -1.74931e-014
lhumerus -42.5091 -12.6938 90.4473
lradius 72.0461
lwrist 14.7065
lhand -37.5207 -27.1012
lfingers 7.12502
lthumb -10.5769 2.61266
rfemur -28.2491 7.20107 25.638
rtibia 48.5901
rfoot -22.7753 3.06873
rtoes 0.0267244
lfemur -23.5105 16.345 -13.1439
ltibia 53.482
lfoot -26.5561 18.3447
ltoes -11.3042
672
root 8.29214 16.5746 15.7261 10.1777 -19.1113 -7.91189
lowerback 8.60726 -8.71545 -4.1932
upperback 1.92133 -11.9166 1.24375
thorax -1.63267 -5.94851 4.6372
lowerneck 8.58292 -19.3273 -16.1687
upperneck -7.09071 -27.4853 28.9106
head 3.06307 -14.6394 9.91149
rclavicle 9.58142e-014 9.54166e-015
rhumerus -21.8351 49.6044 -101.886
rradius 83.7331
rwrist 9.83601
rhand -49.1189 3.02575
rfingers 7.12502
rthumb -21.7432 -25.773
lclavicle 9.58142e-014 9.54166e-015
lhumerus -40.0019 -12.3272 91.279
lradius 72.5382
lwrist 15.6909
lhand -36.9992 -26.2369
lfingers 7.12502
lthumb -10.0739 3.50196
rfemur -28.538 7.09299 25.5284
rtibia 48.7974
rfoot -22.6101 3.70546
rtoes -0.870052
lfemur -24.9469 15.4339 -12.9592
ltibia 55.6164
lfoot -25.6197 18.1378
ltoes -10.7503
673
root 8.35163 16.5537 15.6911 10.2626 -18.8523 -8.24385
lowerback 9.03328 -8.53404 -3.56877
upperback 2.31957 -11.6224 1.46228
thorax -1.55819 -5.81378 4.55065
lowerneck 8.4993 -19.3558 -16.1894
upperneck -7.77911 -27.4034 29.4513
head 2.96118 -14.6482 10.101
rclavicle 3.29983e-014 3.18055e-015
rhumerus -22.4583 47.3592 -101.734
rradius 84.6125
rwrist 9.59589
rhand -49.3159 2.93725
rfingers 7.12502
rthumb -21.9324 -25.8395
lclavicle 3.29983e-014 3.18055e-015
lhumerus -37.1988 -11.8084 92.1637
lradius 73.1446
lwrist 16.5362
lhand -36.6978 -25.7926
lfingers 7.12502
lthumb -9.78312 3.96019
rfemur -28.8686 6.9815 25.5327
rtibia 49.0248
rfoot -22.4368 4.33404
rtoes -1.77369
lfemur -26.5971 14.3354 -12.6178
ltibia 57.9738
lfoot -24.6121 17.6137
ltoes -10.153
